<?xml version="1.0" encoding="UTF-8"?>
<svg height="23pt" xmlns:xlink="http://www.w3.org/1999/xlink" xmlns="http://www.w3.org/2000/svg" width="23pt" version="1.1" viewBox="0,0,23,23">
<title>Toggl Button</title>
<defs/>
<g opacity="1">
<!-- 
    WARNING!
    Make sure that the "path" elements have the correct classes
    so that the specific paths can be selected reliably.
-->
<path class="play-icon" d="M3+11.5C3+6.80558+6.80558+3+11.5+3C16.1944+3+20+6.80558+20+11.5C20+16.1944+16.1944+20+11.5+20C6.80558+20+3+16.1944+3+11.5Z" opacity="1" fill="black"/>
<path class="background-circle" d="M11.1+17C8.1+17+5.7+14.5+5.7+11.5C5.7+9+7.4+6.9+9.7+6.3L9.7+7.9C8.2+8.4+7.2+9.9+7.2+11.5C7.2+13.7+8.9+15.5+11.1+15.5C13.3+15.5+15.1+13.7+15.1+11.5C15.1+9.9+14+8.4+12.6+7.9L12.6+6.3C14.9+6.9+16.6+9+16.6+11.5C16.6+14.5+14.1+17+11.1+17L11.1+17ZM10.3+4.5L11.9+4.5L11.9+12.2L10.3+12.2L10.3+4.5ZM11.1+0.1C5+0.1+0+5.1+0+11.3C0+17.4+5+22.4+11.1+22.4C17.3+22.4+22.2+17.4+22.2+11.3C22.2+5.1+17.3+0.1+11.1+0.1L11.1+0.1Z" opacity="1" fill="#DD6FD1"/>
</g>
</svg>
