<?xml version="1.0" encoding="UTF-8"?>
<svg width="960px" height="960px" viewBox="0 0 960 960" version="1.1" xmlns="http://www.w3.org/2000/svg" xmlns:xlink="http://www.w3.org/1999/xlink">
    <title>Artboard</title>
    <defs>
        <circle id="path-1" cx="469.5" cy="478.5" r="443.5"></circle>
        <filter x="-0.8%" y="-0.6%" width="101.6%" height="101.6%" filterUnits="objectBoundingBox" id="filter-2">
            <feOffset dx="0" dy="2" in="SourceAlpha" result="shadowOffsetOuter1"></feOffset>
            <feGaussianBlur stdDeviation="2" in="shadowOffsetOuter1" result="shadowBlurOuter1"></feGaussianBlur>
            <feColorMatrix values="0 0 0 0 0   0 0 0 0 0   0 0 0 0 0  0 0 0 0.5 0" type="matrix" in="shadowBlurOuter1"></feColorMatrix>
        </filter>
    </defs>
    <g id="Artboard" stroke="none" stroke-width="1" fill="none" fill-rule="evenodd">
        <g id="Oval">
            <use fill="black" fill-opacity="1" filter="url(#filter-2)" xlink:href="#path-1"></use>
            <use fill="#FFFFFF" fill-rule="evenodd" xlink:href="#path-1"></use>
        </g>
        <g id="Icon---Toggl-Track" transform="translate(68.000000, 77.000000)" fill="#DD6FD1" fill-rule="nonzero">
            <path d="M401.976953,617.991744 C298.905216,617.954175 211.745614,541.699472 198.013078,439.546638 C184.280542,337.393803 248.207706,240.828314 347.610273,213.571866 L347.610273,273.492751 C280.923677,299.635973 242.27095,369.525602 255.574009,439.907409 C268.877068,510.289216 330.372001,561.24966 402,561.24966 C473.627998,561.24966 535.122931,510.289216 548.42599,439.907409 C561.72905,369.525602 523.076322,299.635973 456.389726,273.492751 L456.389726,213.571866 C555.800726,240.830649 619.728946,337.4095 605.983808,439.569468 C592.238669,541.729435 505.057445,617.977229 401.976953,617.991744 M372.431348,144.801128 L431.568652,144.801128 L431.568652,438.136904 L372.431348,438.136904 L372.431348,144.801128 Z M401.976953,2.64540603e-06 C179.961484,0.0127333472 -0.00848524862,179.999898 0,402.015365 C0.00848524862,624.030832 179.992212,804.000003 402.007682,804.000003 C624.023151,804.000003 804,624.015469 804,402.000003 C804,295.377106 761.651463,193.119789 686.255529,117.728178 C610.859595,42.3365668 508.599849,-0.0122208775 401.976953,2.64540603e-06" id="Shape"></path>
        </g>
    </g>
</svg>
