<?xml version="1.0" encoding="utf-8"?>
<!-- Generator: Adobe Illustrator 22.1.0, SVG Export Plug-In . SVG Version: 6.00 Build 0)  -->
<svg version="1.1" id="Layer_1" xmlns="http://www.w3.org/2000/svg" xmlns:xlink="http://www.w3.org/1999/xlink" x="0px" y="0px"
	 viewBox="0 0 26 26" style="enable-background:new 0 0 576 576;" xml:space="preserve">
<style type="text/css">
	.st0{fill:#FFFFFF;}
</style>
<g id="Logo">
	<g>
		<g>
			<g>
				<path class="st0" d="M164.9,358.3c-11.5,0-20.9,9.4-20.9,20.9s9.4,20.9,20.9,20.9s20.9-9.4,20.9-20.9
					C185.8,367.7,176.5,358.3,164.9,358.3z"/>
			</g>
			<path class="st0" d="M422.2,175.8l-131.6,42v-41.5l-141.9,45.3v120.3l122.4-39.1v41.3L432,292.8l-43.6-42.6L422.2,175.8z
				 M271.1,282.2L168.3,315v-79.1l102.8-32.8V282.2z M395.6,283.9l-105,33.5v-79l96.7-30.9l-22.2,46.8L395.6,283.9z"/>
		</g>
	</g>
</g>
</svg>
