<svg xmlns="http://www.w3.org/2000/svg" viewBox="0 0 622.94 401.36"><title>Asset 1</title><path d="M396,174.45c-8.82-8.18-21.57-11.93-33.42-11.93H309.69c-5.21,0-9.84-3.92-9.84-8.76a8.77,8.77,0,0,1,6.53-8.46s.89-.23,1.87-.54A71.26,71.26,0,0,0,339,151.35c16.29,0,32.62-4.79,44.58-16,11.64-10.87,17.08-26.09,17.08-41.66s-5.44-30.78-17.08-41.66A54.34,54.34,0,0,0,372.34,44c11.22,2.6,22.8-.62,30.77-14.37L380.66,13.48,361.93,39.55A74.87,74.87,0,0,0,339,36.1c-16.3,0-32.63,4.78-44.58,16-11.65,10.88-17.08,26.09-17.08,41.66s5.43,30.78,17.08,41.66c1,1,2.05,1.85,3.13,2.7l-2.19,1.16A63.11,63.11,0,0,0,280.62,151c-7.38,7.85-14.76,19.62-14.76,35.28,0,0-1,33.4,37.34,33.4H331c6.4,0,12.91,4.07,12.91,10.46a11.47,11.47,0,0,1-1.86,6.29H395.2a48.73,48.73,0,0,0,12.09-33.08C406.94,192.89,403.84,181.78,396,174.45Zm-66.35-91a14.68,14.68,0,1,1-3.75,9.8A13.66,13.66,0,0,1,329.6,83.43Z" style="fill:#e57cd8"/><path d="M547.28,174.45c-8.81-8.18-21.57-11.93-33.42-11.93l-61.33-.45c-3.87,0-6.82-2.43-6.82-6,0-3,1.47-7.36,5.17-8.09a74.86,74.86,0,0,0,22.66,3.38c16.29,0,32.63-4.79,44.58-16,11.64-10.87,17.08-26.09,17.08-41.66s-5.44-30.78-17.08-41.66A54.08,54.08,0,0,0,506.85,44c11.22,2.6,22.8-.62,30.78-14.37L515.18,13.48,496.44,39.55a74.82,74.82,0,0,0-22.9-3.45c-16.29,0-32.62,4.78-44.58,16-11.64,10.88-17.08,26.09-17.08,41.66s5.44,30.78,17.08,41.66a54.27,54.27,0,0,0,11.33,8.12A68.06,68.06,0,0,0,432,151c-7.39,7.85-14.77,19.62-14.77,35.28,0,0-1,33.4,37.34,33.4h27.79c6.4,0,12.91,4.07,12.91,10.46a11.55,11.55,0,0,1-1.85,6.29h53.15a48.69,48.69,0,0,0,12.1-33.08C558.27,192.89,555.18,181.78,547.28,174.45Zm-82.79-91a14.65,14.65,0,1,1-3.76,9.8A13.63,13.63,0,0,1,464.49,83.43Z" style="fill:#e57cd8"/><path d="M607.51,121.75V0H550.73V130.85c0,16.25,2.42,29.8,8.28,38.33,9,13,21.19,21.47,45.42,21.57,4.48-.19,11.94-1.08,18.51-4.5V136.39C611.49,137.84,607.51,129.77,607.51,121.75Z" style="fill:#e57cd8"/><path d="M192,190.75c20,0,40-6.4,54.66-21.36,14.27-14.57,20.94-34.94,20.94-55.77s-6.67-41.21-20.94-55.78C232,42.88,212,36.48,192,36.48s-40,6.41-54.67,21.36C123,72.41,116.37,92.77,116.37,113.62s6.67,41.2,20.94,55.77C152,184.34,172,190.75,192,190.75Zm-13-90.46A18.95,18.95,0,1,1,174.16,113,17.61,17.61,0,0,1,179,100.29Z" style="fill:#e57cd8"/><path d="M21.27,132c0,16.22,2.93,28.72,8.78,37.23,9,13,19.05,21.53,43.51,21.53,14.18,0,26.05-3.26,33.84-7.6V134.68a32.89,32.89,0,0,1-11.51,1.91c-9.44,0-13.31-2.9-16.8-7.33-2.26-2.9-3.39-7.15-3.39-12.67V90.78h31.7V44.52H75.7V0H35.2V16.64C35.2,35.08,21.15,50,3.82,50A30.13,30.13,0,0,1,0,49.77v41H21.27Z" style="fill:#e57cd8"/><path d="M59.41,386.73q-10.39,0-14.35-4.83t-4-14.73v-78H77V275.83H41.1V242.65H26v33.18H0v13.36H26v77.24q0,19.06,8.17,26.74t24.51,7.67a71.84,71.84,0,0,0,9.78-.62,77.29,77.29,0,0,0,9.28-1.85V385c-2.8.49-5.61.91-8.41,1.24A86.31,86.31,0,0,1,59.41,386.73Z" style="fill:#e57cd8"/><path d="M128.71,279.31q-9.9,7.68-14.85,23.52V274.61H99.25V398.39h15.1V341.2a113.84,113.84,0,0,1,1.86-21,49.36,49.36,0,0,1,6.31-17.08,33,33,0,0,1,11.76-11.39q7.31-4.21,18.19-4.21c2,0,4,.08,5.95.25a49.32,49.32,0,0,1,6.43,1V272.87a70.54,70.54,0,0,0-12.13-1.23Q138.62,271.64,128.71,279.31Z" style="fill:#e57cd8"/><path d="M227,271.64a79.33,79.33,0,0,0-20.05,2.22,45.83,45.83,0,0,0-14.36,6.32,33.28,33.28,0,0,0-9.41,9.53,43.52,43.52,0,0,0-5.2,11.63l13.37,7.18q5-23.26,36.39-23.27,17.32,0,25,7.3t7.67,19.93v4.46q0,4.46-6.19,5.2l-41.09,4Q196,327.83,184.76,337T173.5,363.48a40.14,40.14,0,0,0,2.72,14.85,32.84,32.84,0,0,0,7.92,11.89,36.82,36.82,0,0,0,13,7.79,52.13,52.13,0,0,0,18,2.85q15.58,0,27.6-7.43a43.78,43.78,0,0,0,17.7-21.53v26.49h15.1v-81.2q0-22.79-11.88-34.17T227,271.64Zm33.42,73.77a41.85,41.85,0,0,1-2.85,15.1,39.42,39.42,0,0,1-8.41,13.24,42.71,42.71,0,0,1-13.62,9.41,44.87,44.87,0,0,1-18.44,3.59q-13.62,0-20.67-6.31t-7.06-17a22,22,0,0,1,5.94-15.22q5.94-6.57,20.05-8.05l45.06-4.95Z" style="fill:#e57cd8"/><path d="M376.45,382.91A49.22,49.22,0,0,1,357,386.75a51.27,51.27,0,0,1-19.31-3.59A44.63,44.63,0,0,1,322.35,373a45.88,45.88,0,0,1-10-15.84,57,57,0,0,1-3.59-20.67,58,58,0,0,1,3.59-20.8,44.42,44.42,0,0,1,10-15.84,45.51,45.51,0,0,1,15.35-10,51.94,51.94,0,0,1,19.56-3.59,47.14,47.14,0,0,1,18.44,3.59,55.67,55.67,0,0,1,15.72,10L401.08,288a56.53,56.53,0,0,0-18.94-12.13,66,66,0,0,0-24.14-4.2,70.7,70.7,0,0,0-26.61,4.82,59,59,0,0,0-20.55,13.62,60.72,60.72,0,0,0-13.12,20.67,71.76,71.76,0,0,0-4.58,26,73.51,73.51,0,0,0,4.46,26,57.37,57.37,0,0,0,12.87,20.42,59.69,59.69,0,0,0,20.3,13.37,69.74,69.74,0,0,0,26.49,4.83,65,65,0,0,0,25.5-4.71,63.84,63.84,0,0,0,19.06-12.13l-9.16-11.88A58.08,58.08,0,0,1,376.45,382.91Z" style="fill:#e57cd8"/><polygon points="434.99 361.5 434.99 398.39 419.89 398.39 419.89 235.38 434.99 235.38 434.99 342.19 500.1 274.61 521.39 274.61 467.67 328.57 522.63 398.39 502.82 398.39 457.52 338.97 434.99 361.5" style="fill:#e57cd8"/></svg>